<svg width="24" height="22" viewBox="0 0 24 22" fill="none" xmlns="http://www.w3.org/2000/svg">
<path d="M17.3 2.05002C20.15 2.05002 22.5 4.65002 22.5 7.80002C22.5 11.2 19.55 13.3 16.75 15.8C13.95 18.3 12.5 19.65 12 19.95C11.45 19.6 9.65 17.95 7.25 15.8C4.4 13.3 1.5 11.2 1.5 7.80002C1.5 4.65002 3.85 2.05002 6.7 2.05002C8.8 2.05002 9.95 3.05002 10.75 4.20002C11.7 5.50002 11.85 6.15002 12 6.15002C12.15 6.15002 12.3 5.50002 13.25 4.20002C14.05 3.05002 15.2 2.05002 17.3 2.05002ZM17.3 0.550018C15.05 0.550018 13.35 1.45002 12 3.35002C10.65 1.50002 8.95 0.600018 6.7 0.600018C3 0.550018 0 3.80002 0 7.80002C0 11.45 2.7 13.8 5.3 16.05C5.6 16.3 5.95 16.6 6.25 16.9L7.4 17.9C9.6 19.85 10.7 20.85 11.2 21.15C11.45 21.3 11.75 21.4 12 21.4C12.3 21.4 12.55 21.3 12.8 21.15C13.3 20.85 14.2 20.05 16.7 17.75L17.7 16.85C18.05 16.55 18.35 16.25 18.7 16C21.35 13.8 24 11.5 24 7.80002C24 3.80002 21 0.550018 17.3 0.550018Z" fill="var(--color-switcher)"/>
</svg>
